<svg id="svg2" xmlns="http://www.w3.org/2000/svg" viewBox="0 0 950 620"><style>.st0{fill:#fff;stroke:#fff;stroke-miterlimit:10}</style><path id="kalimantan" class="st0" d="M781.7 324.4l-2.3 8.7-12.5 4.2-3.8-4.4-1.8.5 3.4 13.1 5.1.6 6.8 2.6v2.6l3.1-.6 4.5-6.3v-5.1l2.5-5.1 2.8.6-3.4-7.1-.5-4.6-3.9.3z"/><path id="papua_new_guinea" class="st0" d="M852.8 348.3l-.4 24.4 3.5-.2 4.6-5.4 3.9.2 2.5 2.2.8 6.9 8 4.2 2-.8v-2.5l-6.4-5.3-3.2-7.3 2.5-1.2-1.8-4-3.7-.1-.9-4.3-9.8-6.6-1.6-.2z"/><path id="mexico" class="st0" d="M137.5 225.4l4.8 15.2-2.2 1.3.2 3 4.2 3.3v6.1l5.2 5-2.2-14.9-3-9.8.8-6.8 2.5.2 1 2.3-1 5.8 13 25.4v9.1l10.5 12.3 11.5 5.3 4.8-2.8 6.8 5.5 4-4-1.8-4.5 5.8-1.8 1.8 1 1.8-1.8h2.8l5-8.8-2.5-2.3-9.8 2.3-2.2 6.5-5.8 1-6.8-2.8-3-9.6L186 254l-4.6-2.9-2.2-11.6-1.9-.8-3.4 3.4-3.9-2.1-1.5-7.7L153 231l-7.9-6-7.6.4z"/><path id="estonia" class="st0" d="M517.8 143.7l-5.6-.2-3.5 2.2v1.6l2.3 2.2 7.2 1.2-.4-7z"/><path id="algeria" class="st0" d="M473.9 227.5l-4.1-1.4-17 3.2-3.7 2.8 2.3 11.7-6.8.3-4.1 6.5-9.7 2.3v4.8l31.9 24.4 5.4.5 18.1-14.1-1.8-2.3-3.4-.5-2-3.4V248l-1.4-1.4.2-3.6-3.6-3.6-.5-3.9 1.6-1.1-.7-4.1-.7-2.8z"/><path id="morocco" class="st0" d="M448.3 232.3h-11.5l-2.3 5-5.2 2.5-4.3 11.6-8.4 5-11.8 19.4 11.5-.2.5-5.7h2.9v-7.8H430l.2-10 9.7-2.3 4.1-6.6 6.3-.2-2-10.7z"/><path id="mauretania" class="st0" d="M404.9 276.7l2.2 2.9-.5 12.3 3.2-2.3 2.3-.5 3.2 1.1 3.6 5 3.4-2.3 16.5-.2-4.1-27.6h4.4l-8.2-6.2v4.1h-10.3v7.8h-3l-.4 5.7-12.3.2z"/><path id="senegal" class="st0" d="M410.1 290.3l-3.9 2.9-.9 1.6-.3 1.6 1.5 1 4.8-.1 3.1-.8.4 1.5-.3 2 3 1.5.6.7 3.9.1.1-1.7-3.6-4.3-4-5.4-2.5-1-1.9.4z"/><path id="gambia" class="st0" d="M406.9 298.3l-.1 1.1 6.9-.1.4-1-.1-1-2 .8-5.1.2z"/><path id="casamance" class="st0" d="M406.8 300.2l1.2 3 .7-1.9 8.4.9-3.6-1.9-6.7-.1z"/><path id="bissau" class="st0" d="M408.6 304.5l1.4 2.8 3.9-3.4v-1l-4.6-.7-.7 2.3z"/><path id="guinee" class="st0" d="M410.4 307.9l3 4.7 4-3.4 4.1-.2 3.4 4.5 2.9 1.9 1.1-2.1 1-.5-.1-4.6-1.9-5.5-5.9.6-7.2-.6v1.9l-4.4 3.3z"/><path id="sierra_leone" class="st0" d="M413.9 313.1l5.6 5.5 4-4.9-2.5-4-3.5.4-3.6 3z"/><path id="liberia" class="st0" d="M420.2 319.2l11 7.3-.3-5.6-3.3-3.9-3.2-2.9-4.2 5.1z"/><path id="ivoire" class="st0" d="M432.1 326.8l4.3-3 5.3-.9 5.4 1.2-2.8-4.2-.8-2.6.8-7.6-4.9.2-2.2-2.1-4.6.1-2.2.4.2 5.1-1.2.5-1.4 2.6 3.6 4.2.5 6.1z"/><path id="mali" class="st0" d="M419.5 295.8l3.1-2.1 17.1-.1-4-27.5 4.5-.1 21.9 16.7 2.9.4-1.1 9.3-13.8 1.2-10.6 7.9-1.9 5.4-7.4.3-1.9-5.4-5.6.4.2-1.8-3.4-4.6z"/><path id="burkina" class="st0" d="M450.6 294.3l3.6-.3 6 8.4-5.5 4.2-4-1-5.4.1-.9 3.2-4.5.2-1.2-1.7 1.6-5.1 10.3-8z"/><path id="niger" class="st0" d="M460.9 302l2.5-.1 2.3-3.5 3.9-.7 4.1 2.5 8.8.2 6.8-2.8 2.5-2.2.2-2.9 4.7-4.8 1.2-10.5-3.1-6.5-8-1.9-18.4 14.4-2.6-.2-1.1 10-9.4.9 5.6 8.1z"/><path id="ghana" class="st0" d="M444.3 317l1.1 2.6 2.9 4.6 1.6-.1 4.4-2.5-.3-14.3-3.4-1-4.8.1-1.5 10.6z"/><path id="togo" class="st0" d="M455.2 321.2l2.7-1.6-.1-10.4-1.7-2.8-1.1.9.2 13.9z"/><path id="benin" class="st0" d="M458.7 319.5h2.1l.1-6 2.7-3.9-.1-6.8-2.4-.1-4.2 3.3 1.7 3.3.1 10.2z"/><path id="nigeria" class="st0" d="M461.6 319.4l3.9.2 4.7 5.3 2.3.6 1.8-.9 2.7-.4.9-3.8 3.7-2.5 4-.2 7.4-13.6-.1-3.1-3.4-2.6-6.8 3-9.1-.1-4.4-2.8-3.1.7-1.6 2.8-.1 8-2.6 3.7-.2 5.7z"/><path id="tunisia" class="st0" d="M474.9 227.3l5.5-2.2 1.8 1.2.1 1.4-.9 1.1.1 2 .9.5v3.5l-1 1.6.1 1.1 3.7 1.3-3 4.6-1.2-.1-.2 3.7-1.3.2-1.1-1 .3-3.8-3.6-3.5-.5-3.1 1.8-1.4-1.5-7.1z"/><path id="libya" class="st0" d="M480 248l1.6-.3.5-3.6h.8l3.2-5.2 7.9 2.3 2.1 3.3 7.7 3.5 4-1.7-.4-1.7-1.8-1.7.2-1.2 2.9-2.4h5.7l2.2 2.9 4.5.7.6 36.9-3.4-.1-20.4-10.6-2.2 1.2-8.4-2.1-2.3-3-3.3-.5-1.7-3V248z"/><path id="egypt" class="st0" d="M521.9 243.1l2.7.1 5.2 1.4 2.5.1 3.1-2.6h1.4l2.6 1.4h3.9l2.1 6 .6 1.9.5 2.9-1 .7-1.7-.9-2-6.4-1.8-.1-.1 2.2 1.2 3.7 9.4 11.6.2 5-2.7 3.1-25.6-.3-.5-29.8z"/><path id="chad" class="st0" d="M492.8 296l.1-3 4.7-4.6 1.3-11.3-3.2-6 2.2-1.1 21.4 11.1-.1 10.9-3.8 3.2v5.6l2.5 4.8h-4.4l-7.2 7.1-.2 2.2-5.3-.1-.1 1-3-.4-2.1-3.9-1.6-.8.2-1.2 2-1.5v-7l-2.7-.4-3.3-2.4 2.6-2.2z"/><path id="south_sudan" class="st0" d="M549.1 310.3l-2.9-4.9-.3-3.6-.7.1-.2 1.1-3.9 5.6-3.1-1.5-3.1 2.6-6.4-.4-2.8-2.2-4 2.1-.2 1.4-1.2.7 12.3 12.7 6.7.4 1 1.5 9.6.2.1-2.2.8-1.5 3.2-.4-4-5.8h-2.9l-.8-4.1 2.4-1 .4-.8z"/><path id="sudan" class="st0" d="M552 270.6l-3.7 3.7-25.8-.2.3 6.6-2.5-.1-.2 11.8-3.7 3.2-.2 4.9 2.7 5.3 2.9 1.7v.4l4-2.1 3.1 2.4 5.6.3 3.3-2.7 2.9 1.4 3.2-4.7.3-1.6 2.5-.5.4 4.5 2.5 4.2 6-12.9v-7.8l4.4-5.1-8-12.7z"/><path id="cameroon" class="st0" d="M477.8 324.3l3.2 3-.2 4.6 17.7-.4 1.4-1.6-5.1-5.5-.8-2 3.2-6-2.2-4-1.8-1v-2l2.1-1.4.1-6.3-1.7-.2v3.3l-7.4 13.9-4.5.2-3.1 2.1-.9 3.3z"/><path id="eritrea" class="st0" d="M556.7 294.7l-.2-5.9 4-4.6 1.1.8 2 6.5 9.4 7-1.7 2.1-6.8-5.9h-7.8z"/><path id="djibouti" class="st0" d="M571.5 301.5l-.6 3.4 4-.1.1-4.9-1.5-.9-2 2.5z"/><path id="ethiopia" class="st0" d="M549.5 311.8l7.3-16.2h7.2l6.4 5.6-.5 4.6h5l.5 2.8 8 4.8 5 .2-9.4 10.1-13 4h-3.2l-5.7-4.9-2.3-1-4.4-6.5h-2.9l-.3-3 2.3-.5z"/><path id="somaliland" class="st0" d="M575.7 305l4.1 2.8 1.2-.1 10.1-3.5 1.2 3.7-.8 3.1-2.2 1.7-5.5-.4-7.8-4.8-.3-2.5z"/><path id="soqotra" class="st0" d="M599.6 299.6l2.1 2.4 2.9-1.7 1-.4-1.3-1.3-2.5.8-2.2.2z"/><path id="somalia" class="st0" d="M592 304l4.4-1.7 1.5.9-.2 3.9-4 11.5-21.8 23.4-2.5-1.7-.2-9.9 3.3-3.8 7-2.1 10.2-10.8 2.7-2.4.8-3.5-1.2-3.8z"/><path id="centrafrique" class="st0" d="M495.7 324l4.7 5 1.8-2.4 2.9.1.6-2.3 2.9-1.8 6 4.1 3.5-3.4 13.4.6-12.5-12.7 1.7-1 .2-2.3-2.8-1.3H514l-6.7 6.6-.2 2.7-5.3-.2-.2 1.2-3.5-.4-3.1 5.9.7 1.6z"/><path id="sao_tome" class="st0" d="M470.7 337.1l1.1-.6.9.7-.9 1.3-1-.4-.1-1z"/><path id="principe" class="st0" d="M473 333.5l1.7-.3.6 1.1-.9.9-.9-.1-.5-1.6z"/><path id="bioko" class="st0" d="M476.8 327.4l-.5 2 1.4.8 1.3-1-.5-2-1.7.2z"/><path id="gabon" class="st0" d="M486.4 332.6l-.1 2.5-5.6-.1-3.5 6.7 8.1 8.9 2-1.7-.1-1.7-1.4-.6v-1.2l3.1-2 2.8 2.1 3 .1-.1-10.5-4.8-.2-.1-2.2-3.3-.1z"/><path id="equatorial_guinea" class="st0" d="M481 332.7l-.1 1.4 4.5.2-.1-1.6H481z"/><path id="congo" class="st0" d="M491 332.5l-.1 1.5 4.8.1.2 12.4-4.4-.1-2.5-2-2 1.1-.1.5 1 .5.3 2.5-2.7 2.3.6 1.2 3-2.3h1.4l.5 1.4 1.9.8 6.1-5.2-.1-3.8 1.3-3.1 3.9-2.9 1-9.8h-2.8l-3.2 4.4-8.1.5z"/><path id="cabinda" class="st0" d="M486.5 353.2l1.7 2.3 2.2-2.1-.7-2.2h-.6l-2.6 2z"/><path id="drc" class="st0" d="M489.4 355.7l10.3-.2 2.1 3-.1 2.2.8.7h5.1l1.5-2.9h2.1l.9.9 2.9-.1.8 10.1 5 .2v.8l13.3 6 .6 1.2h2.8l-.3-4.2-5-2.4.3-3.2 2.2-5.1 5-.2-4.3-14.1.1-6 6.7-10.5.1-1.5-1-.5V327l-1.2-.1-1.2-1.6-20.3-.9-3.7 3.6-6.1-4-2.1 1.3-1.6 13.1-3.9 3-1.2 2.6.2 3.9-7 5.7-1.9-.8.2 1.1-2.1 1.8z"/><path id="rwanda" class="st0" d="M537.8 339.9l2.8 2.6-.1 2.8-4.4.1v-3.1l1.7-2.4z"/><path id="burundi" class="st0" d="M536.2 346.2l4.3-.1-1.1 3.7-1.1.9H537l-.9-2.5.1-2z"/><path id="uganda" class="st0" d="M538.3 339.1l3 2.8 1.9-1.2 5.1-.8.9.1.3-2 2.9-6.1-2.4-5.1h-7.9v2.1l1.1 1-.2 2.1-4.7 7.1z"/><path id="kenya" class="st0" d="M550.8 326.5l2.7 5.2-3.2 6.7-.4 2 15.9 9.9 4.9-7.8-2.5-2v-10.2l3.1-3.4-5 1.7h-3.8l-5.9-5-1.9-.8-3.5.3-.6 1 .2 2.4z"/><path id="tanzania" class="st0" d="M550.6 371.4l17.5-2.1-3.9-7.6-.2-7.3 1.3-3.5-16.6-10.4-5.2.9-1.8 1.3-.2 3-1.2 4.2-1.2 1.5-1.8.2 3.3 11.6 5.5 2.6 3.8.1.7 5.5z"/><path id="zambia" class="st0" d="M514.5 384.7l3.2 4.4 4.9.3 1.7 1 5.1.1 4.4-6.2 12.4-5.5 1.1-4.9-1.4-7-6.5-3.7-4.3.3-2.2 4.8.1 2.2 5.1 2.5.3 5.4-4.4.2-1.1-1.8-12.1-5.2-.4 4-5.7.2-.2 8.9z"/><path id="angola" class="st0" d="M488.6 356.7l3.4 12.7-.1 4-5 5.4-.8 8.7 19.2.2 6.2 2.3 5.2-.7-3-3.8v-10.7l5.9-.2v-4.2l-4.8-.2-1-9.9h-2l-1.1-1-1.2.1-1.6 3.1H502l-1.4-1.4.4-2-1.7-2.4h-10.7z"/><path id="malawi" class="st0" d="M547.2 379.4l3.1 3.2-.1 4.2.6 1.8 4.1-4.5-.5-5.7-2.2-1.7-2-10-3.4-.1 1.5 7.2-1.1 5.6z"/><path id="mozambique" class="st0" d="M541.2 413.3l2.7 2.2 6.3-3.9 1-5.7v-9.5l10.2-8.3 1.7.1 6.2-5.9-1-12.2-16.3 2.1.5 3.7 2.8 2.2.7 6.6-5.5 5.4-1.3-3 .2-4-3.2-3.4-7.8 3.6 7.2 3.7.2 10.7-4.8 7.1.2 8.5z"/><path id="zimbabwe" class="st0" d="M524.7 392.3l9 10.1 6.9 1.8 4.6-7.2-.4-9.6-7.5-3.9-2.8 1.3-4.2 6.4-5.8-.1.2 1.2z"/><path id="namibia" class="st0" d="M496.5 422l3.4.2 2 2 4.7.1 1.1-13.3v-8.7l3-.6 1.1-9.1 7.6-.2 2.7-2.2-4.5-.2-6.2.8-6.6-2.4h-18.7l.5 5.3 6.2 9.2-1.1 4.7.1 2.5 4.7 11.9z"/><path id="botswana" class="st0" d="M508.5 411.2l2.1.7-.3 6.1 2.2.3 5.1-4.6 6.1.7 1.6-4.1 7.7-7-9.3-10.7-.1-1.8-1-.3-2.8 2.6-7.3.2-1 9.1-2.9.7-.1 8.1z"/><path id="swaziland" class="st0" d="M540.9 414l-2.5.4-1.1 3 1.9 1.8h2.3l2-2.8-2.6-2.4z"/><path id="lesotho" class="st0" d="M527.4 425.4l3-2.4 1.4.1 1.7 2.2-.2 2.2-2.9 1.1v.8l-3.2-.2-.8-2.4 1-1.4z"/><path id="south_africa" class="st0" d="M534.2 403.6l-7.9 7.3-1.9 4.5-6.3-.8-5.2 4.6-3.5-.3.3-6.4-1.2-.4-.9 13.1-6.1-.1-1.9-2.2h-2.7l2.5 7.1 4.4 4.2-3.1 3.7 2 4.6 4.7 1.8 3.8-3.2 10.8.1.8-1 4.8-.8 16.2-16.1-.1-5.1-1.7 2.2h-2.6l-3.2-2.6 1.6-4 2.8-.6-.2-8.2-6.2-1.4zm-3.8 18.5l1.5-.1 2.5 2.7-.1 3.1-2.9 1.5-.2 1h-4.4l-1.4-3.3 1.2-2.4 3.8-2.5z"/><path id="greenland" class="st0" d="M321.1 50.1l-1.4 2.2 2.5 2.5-1.1 2.5 3.5 4.6 4.4-1.4 5.7-.5 6.5 7.1 4.4 11.7-3.5 7.3 4.9-.8 2.7 1.6.3 3.5-6 .3 3.3 3.3 4.1.8-9 12-1.1 7.3 1.9 6-1.4 3.5 2.5 7.6 4.6 5.2 1.4-.3 3-.8.3 4.4 1.9 2.7 3.5-.3 2.7-10.1 8.2-10.1L382 117l7.6-9.5 3.5 1.6h7.3l6-6 7.3-3 .8-4.6-4.6-4.1L406 90l-2.2-5.7 5.2-3 8.2 4.3 2.7-3-4.4-2.4 9.2-12.5-1.6-5.4-4.4-.3 1.6-4.9 5.4-2.5 11.1-9.8-3.3-3.5-12.5 1.1-6.5 6.5 3.8-8.4-4.4-1.1-2.5 4.3-3.5-3-9.8 1.1 2.7-4.3 16-.5-4.1-5.4-17.4-3.3-7.1 1.1.3 3.5-7.3-2.5.3-2.5-5.2 1.1-1.1 2.7 5.4 1.9-5.7 4.1-4.1-4.6-5.7-1.6-.8 4.4h-5.7l-2.2-4.6-9-1.4-4.9 2.5-.3 3.3-6.2-.8-3.8 1.6.3 3.8v1.9l-7.1 1.4-3.3-2.2-2.2 3.5 3.3 3.5 6.8-.8.5 2.2-5.2 2.5-4.2-2.2z"/><path id="disko" class="st0" d="M342.9 92.5l1.6 2.4-.8 3h-1.6l-2.2-2.4.5-1.9 2.5-1.1z"/><path id="milne" class="st0" d="M410.9 85.7l4.6 1.4-.3 3.8-4.9-2.4-1.1-1.4 1.7-1.4z"/><path id="australia" class="st0" d="M761.2 428l-.3 25.4-3.9 2.9-.3 2.5 5.3 3.6 13.1-2.5h6.7l2.5-3.6 14.9-2.9 10.6 3.2-.7 4.3 1.4 4.3 8.2-1.4.3 2.1-5.3 3.9 1.8 1.4 3.9-1.4-1.1 11.8 7.5 5.7 4.3-1.4 2.1 2.1 12.4-1.8 11.7-19 4.3-1.1 8.5-15.7 2.1-13.6-5.3-6.8 2.1-1.4-4.3-13.2-4.6-3.2.7-17.9-4.3-3.2-1.1-10h-2.1l-7.1 23.6-3.9.4-8.9-8.9 5-13.2-9.2-1.8L818 384l-2.8 8.2-4.6 1.1-.3-5.7-18.9 11.4.3 4.3-2.8 3.9h-7.1l-15.3 6.4-5.3 14.4z"/><path id="tasmania" class="st0" d="M825.7 496.3l-1.8 7.1.3 5 5.3-.4 6-9.3-9.8-2.4z"/><path id="new_zealand_north_island" class="st0" d="M913 482l1.1 11.8-1.4 5.4-5.3 3.9.3 4.6v5l1.4 1.8 14.5-12.5v-2.9h-3.5l-5-16.8-2.1-.3z"/><path id="new_zealand_south_island" class="st0" d="M902.4 507.7l2.8 5.4-7.8 7.5-.7 3.9-5.3.7-8.9 8.2-8.2-3.9-.7-2.9 14.9-6.4 13.9-12.5z"/><path id="new_caledonia" class="st0" d="M906.6 420.5l-.3 1.8 4.6 6.4 2.5 1.1.3-2.5-7.1-6.8z"/><path id="sumatra" class="st0" d="M722.5 317.6l-.3 2.3 6.8 11.4h2l14.2 23.7 5.7.6 2.8-8.3-4.5-2.9-.8-4.6-25.9-22.2z"/><path id="east_malaysia" class="st0" d="M764.1 332.9l3 3.5 11.6-4 2.3-8.8 5.2-.4 4.7-3.4-6.1-4.5-1.4-2.5-3 5.6 1.1 3.2-1.8 2.7-3.5-.9-8.4 6.2.2 3.6-3.9-.3z"/><path id="brunei" class="st0" d="M779.8 319.2l-2.9 3.5 2.4.7 1.3-1.9-.8-2.3z"/><path id="sulawesi" class="st0" d="M789.5 349.1l2.3 2.8-1.5 4.2v.8h3.3l1.2-10.4 1.1.3 2 9.5 1.9.5 1.8-4.1-1.8-6.1-1.5-2.7 4.6-3.4-1.1-1.5-4.4 2.9h-1.2l-2.2-3.2.7-1.4 3.6-1.8 5.5 1.7 1.7-.1 4.1-3.9-1.7-1.7-3.8 3h-2.5l-3.7-1.8-2.7.1-3 4.8-1.9 8.2-.8 3.3z"/><path id="maluku" class="st0" d="M814.2 330.5l-1.9 4.5 3 3.9h1l1.3-2.6.7-.9-1.3-1.4-1.9-.7-.9-2.8z"/><path id="seram" class="st0" d="M820 345.5l-4 .9-1.2 1.3 1 1.7 2.7-1 1.7-1 2.5 2 1.1-.9-2-2.4-1.8-.6z"/><path id="java" class="st0" d="M753.2 358.3l-2.8 1.9.6 1.6 8.8 2 4.4.8 1.9 2 5 .4 2.4 2 2.2-.5 2-1.8-3.6-1.7-3.1-2.7-8.2-2-9.6-2z"/><path id="bali" class="st0" d="M781.8 366.9l-2.2 1.2 1.3 1.4 3.1-1.2-2.2-1.4z"/><path id="lombok" class="st0" d="M785.5 366l.4 1.9 2.3.6.9-1.1-1-1.5-2.6.1z"/><path id="sumba" class="st0" d="M790.9 371l-2.8.4 2.5 2.1h2l-1.7-2.5z"/><path id="flores" class="st0" d="M791.7 367.7l-.6 1.2 4.4.7 3.4-2-2-.6-3.1.9-1.2-1-.9.8z"/><path id="timor" class="st0" d="M806.1 368.4l-5.1 4.3.5 1.1 2.2-.4 2.5-2.4 5-.7-1-1.7-4.1-.2z"/><path id="new_ireland" class="st0" d="M880.5 349l-.9 1.2 4.8 4.3.7 2.5 1.3-.1.2-2.6-1.5-1.3-4.6-4z"/><path id="new_britain" class="st0" d="M882.9 355l-1 .2-.6 2.6-1.8 1.2-5.5 1 .2 2.1 5.8-.3 3.7-2.3-.2-4-.6-.5z"/><path id="bougainville" class="st0" d="M889.4 359.5l1.2 3.5 2.2 2.1.7-.6-.2-2.3-2.5-3-1.4.3z"/><path id="choiseul" class="st0" d="M895.4 364.6l.2 2.3 1.4 1.3 1.3-.8-1.2-2.4-1.7-.4z"/><path id="new_georgia" class="st0" d="M897.2 370.3l-1.2 1.2 1.2 2.3 1.5.4-.1-1.5-1.4-2.4z"/><path id="santa_isabel" class="st0" d="M900 369l1 2.5 2 2.4 1.1-1.8-1.5-2.5-2.6-.6z"/><path id="malaita" class="st0" d="M905.1 372.7l.6 3.1 1.4 1.9 1.2-2.4-3.2-2.6z"/><path id="santa_ana" class="st0" d="M906.7 379.6l-.5.9 1.7 2.2 1.2.1-.7-2.9-1.7-.3z"/><path id="rennell" class="st0" d="M903 384l-1.8.8 1.5 2.1 1.3-.7-1-2.2z"/><path id="espiritu_santo" class="st0" d="M920.9 397.2l-1.2 1.7.5 1.9.6.4 1.1-1.5-1-2.5z"/><path id="malakula" class="st0" d="M921.5 402.3l.1 1.4 1.3.4.9-.5-.9-1.5-1.4.2z"/><path id="efate" class="st0" d="M923.5 414.4l-.6.9.9 1 1.5-.5-1.8-1.4z"/><path id="fiji" class="st0" d="M948.6 412.3l-1.2 1.7-.1 1.9 1.4 1.5-.1-5.1z"/><path id="palawan" class="st0" d="M789.4 297.5l-.9 1.6-.5 2-4.8 6.1.3 1.2 2-.3 6.2-6.9-2.3-3.7z"/><path id="negros" class="st0" d="M797.1 295.2l-.1 5 1.8 1.8.7 3.6 1.8.4.9-2.2-1.4-1.1-.4-6.3-3.3-1.2z"/><path id="cebu" class="st0" d="M802.3 297.1l-.1 4.4 1 1.7 1.8-2.1-.5-3.9-2.2-.1z"/><path id="samar" class="st0" d="M803.4 293.3l1.8 2.4.9 2.3h1.6l-.3-4-1.8-1.2-2.2.5z"/><path id="path7462" class="st0" d="M807 302.4l.4 2.9-3.3 2.7-2.8.3-3 3.2.1 1.5 2.8-.9 1.9-1.2 1.6 4.1 2.9 2 1.2-.4 1-1.2-2.3-2.3 1.3-1.1 1.5 1.2 1-1.7-1-2.1-.2-4.7-3.1-2.3z"/><path id="luzon" class="st0" d="M791.4 273l-2.6 1.8-.3 5.8 4 7.8 1.3 1.1 1.7-1.2 3 .5.6 2.6 2.2.2 1-1.4-1.3-1.8-1.6-1.5-3.4-.4-1.8-3 2.1-3.2.2-2.8-1.4-3.6-3.7-.9z"/><path id="mindoro" class="st0" d="M792.7 290.2l.8 2.7 1.3.9 1-1.2-1.5-2.1-1.6-.3z"/><path id="hainan" class="st0" d="M759.8 270.2l-2.4.7-1.7 2.1 1.4 2.8 2.1.2 2.4-2.1.6-2.8-2.4-.9z"/><path id="taiwan" class="st0" d="M787.5 248.3L784 251l-.2 5.2 3.1 3.6.8-.7-.2-10.8z"/><path id="kyushu" class="st0" d="M803.2 216.4l-1.6 1.6.7 2.3 1.4.1 1 5 1.2 1.2 2-1.8.9-3.3-2.5-3.6-3.1-1.5z"/><path id="shikoku" class="st0" d="M812 213.1l-2.8 2.6-.1 3 .7.9 3.7-3.2-.3-3.2-1.2-.1z"/><path id="honshu" class="st0" d="M808.2 207l-4.9 5.6.9 1.4 2.4.3 4.5-3.5 3.2-.6 2.9 3.4 2.2-.8.9-3.3 4.1-.1 4-4.8-2.1-8-1-4.2 2.1-1.7-4.8-7.2-1.2.1-2.6 2.9v2.4l1.2 1.4.4 6.4-3 3.7-1.7-1.1-1.3 3-.3 2.8 1 1.6-.7 1.2-2.2-1.8h-1.5l-1.3.8-1.2.1z"/><path id="hokkaido" class="st0" d="M816.4 163.4l-1.5 1.4.8 2.9 1.3 1.4-.1 4.4-1.7.7-1.3 3 3.9 5.4 2.6-.9.5-1.4-2.8-2.5 1.7-2.2 1.8.3 1.4 1.5.1-3.2 3.9-3.2 2.2-.6-1.8-3.1-.9-1.4-1.4 1-1.2 1.5-2.7-.6-2.8-1.8-2-2.6z"/><path id="iturup" class="st0" d="M830.9 160.4l-2.7 3.8.2 1.8 1.3-.6 3.2-3.9-2-1.1z"/><path id="urup" class="st0" d="M834.4 155l-1 2.6.1 1.7 1.6-1.1 1.5-3.1V154l-2.2 1z"/><path id="paramushir" class="st0" d="M840 132l-1.2 1.5.1 2.4 1.2-.1 1.9-3.4-2-.4z"/><path id="onekotan" class="st0" d="M837.8 137.9v4.2l1.3.5 1-1.5v-3.3l-2.3.1z"/><path id="sakhalin" class="st0" d="M798.6 122.6l-.1 6.2 7.7 11.9 2.8 10.4 4.9 9.2 1.9.7 1.6-1.4.8-2.2-7-7.6.2-3.9 1.5-.7.4-2.3-13.7-19.4-1-.9z"/><path id="bering_island" class="st0" d="M852.6 103.4l-1.9.2 1.2 1.6 2.4 1.6.7-.8-2.4-2.6z"/><path id="medny" class="st0" d="M856.3 104.6l.3 1.6 3 .9.3-1.2-3.6-1.3z"/><path id="attu" class="st0" d="M872.5 110.9l1.2 2.2 2.1-.1.4-1.5-3.7-.6z"/><path id="st._lawrence_island" class="st0" d="M881.3 38.4l-2.4 1.5-.6 2 1.1 1.3 2.5-.8 2.5.8 1.4.4-.1-4.6-4.4-.6z"/><path id="st._lawrence_island_west" class="st0" d="M69.2 53.3l3.5 6.5 2.2-.5v-2.2l-5.7-3.8z"/><path id="unalaska_west" class="st0" d="M49.7 110.3l-.2 3 2.2-.5v-1.3l-2-1.2z"/><path id="umnak_west" class="st0" d="M46.3 111.6l-4.3 2.2.7 2.3 1.7-1.3 3.3-1.5-1.4-1.7z"/><path id="another_aleutian_west" class="st0" d="M28.4 114.4l-3-.7-.5 1.3.3 2.5 3.2-3.1z"/><path id="adak_west" class="st0" d="M22.1 114.3l-2.8-1.2-1 1.8 1.8 1.8 2-2.4z"/><path id="amchitka_west" class="st0" d="M12.3 111.6l-1.3-1.8-1.3.5v2.5l1.5 1 1.1-2.2z"/><path id="attu_west" class="st0" d="M1.5 99.7l1.7 1.2-.5 1.3H1.5v-2.5z"/><path id="kerguelen" class="st0" d="M622.8 499.6l-.2 4.3 5.9 1.4 1.4-3.5-2.1.6-2.8.6-.8-3.2-1.4-.2z"/><path id="mauritius" class="st0" d="M613 399l-1.5 2 .3 2.1 3.2-2.6-2-1.5z"/><path id="reunion" class="st0" d="M607.4 402.4l-2.3.1-.2 2 1.5.3 2.3-1.1-1.3-1.3z"/><path id="madagascar" class="st0" d="M592.3 372.9l-2.1 5.1-3.7 6.4-6.4.5-2.7 3.2.5 9.8-4 4.6.5 7.8 3.3 3.8 4-.5 4-2.9-.9-4.6 9.1-15.8-1.8-2 1.8-3.8 2 .6.6-1.5-1.8-7.8-1.1-3.2-1.3.3z"/><path id="grande_comore" class="st0" d="M577.7 371.2l.5 1.5 2 .3.8-2-3.3.2z"/><path id="mayotte" class="st0" d="M580.6 374.3l.8 1.7h1.2l.6-2.1-2.6.4z"/><path id="aldabra" class="st0" d="M602.3 358.3l-.6 1.2 1.7 1.4 1.2-1.4-2.3-1.2z"/><path id="praslin" class="st0" d="M610.9 349.1l-1.8 1.2 1.4 2.1h1.8l-1.4-3.3z"/><path id="mahe" class="st0" d="M611.6 354.5l-1.2 1.4.9 1.4 1.7.3.2-2.9-1.6-.2z"/><path id="male" class="st0" d="M656.4 320.8l.3 2.6 1.7.6.3-2.3-2.3-.9z"/><path id="maldive" class="st0" d="M658.5 326.3l-.2 3.2 1.2.6 1.1-2.1-2.1-1.7z"/><path id="gan" class="st0" d="M658.8 332.6l-1.1 1.1 1.2 1.1 1.5-1.1-1.6-1.1z"/><path id="path151" class="st0" d="M372.6 217l-1.4 1.4 2.4 1.4.3-1.9-1.3-.9z"/><path id="terceira" class="st0" d="M380 216.2l-1.6 1.1 1.4 1.1 2.2-.6-2-1.6z"/><path id="pico" class="st0" d="M381 220l-.8 2.2 1.1 1.4 1.4-1.1-1.7-2.5z"/><path id="sao_miguel" class="st0" d="M387.6 224.4l-.5 1.4.8.8 2.2-1.4-2.5-.8z"/><path id="madeira" class="st0" d="M408.2 236.4l-1.1 1.4 1.1 1.4 1.6-.8-1.6-2z"/><path id="lanzarote" class="st0" d="M415.6 253.7l-1.8 1 .8.8 1-1.8z"/><path id="gran_canaria" class="st0" d="M409.5 253.9l-2.2.6 1.1 1.6h1.6l-.5-2.2z"/><path id="tenerife" class="st0" d="M404.4 252.3l-1.4 1.4 1.9 1.6 1.1-2.5-1.6-.5z"/><path id="santo_antao" class="st0" d="M387.6 290.5l-1.9 1.1 1.4 1.1 1.6-.8-1.1-1.4z"/><path id="boa_vista" class="st0" d="M392.2 292.7l-1.2 1.1.9 1.6 2.1-1-1.8-1.7z"/><path id="santiago" class="st0" d="M389.5 295.8l-1.6 1 1.7 2.3 1.4-.7-1.5-2.6z"/><path id="kauai" class="st0" d="M10 248.7l-.1 2.3 2 1.4 1.2-1.1-3.1-2.6z"/><path id="oahu" class="st0" d="M15.3 252.1l-1.9 1.4 1.6 2.1 1.9-1.6-1.6-1.9z"/><path id="kahului" class="st0" d="M19.1 255.4l-1.6 2.2.5 1.4 2.3-1.1-1.2-2.5z"/><path id="hawaii" class="st0" d="M21.8 259.6l-1 5.5 1 2 3.1-1 1.6-2.7-3.4-3.1-1.3-.7z"/><path id="raiatea" class="st0" d="M27.2 402.7l-1.9-.1-.1 1.8 1.5 1 1.8-1.1-1.3-1.6z"/><path id="tahiti" class="st0" d="M33.8 404.6l-2.7 1.8 2 2.5 1.8-.4 1-1.2-2.1-2.7z"/><path id="guadeloupe" class="st0" d="M276.6 283.4l-1.5.6.5 1.3 1.8-1.1-.4-.4-.4-.4z"/><path id="dominica" class="st0" d="M279.1 284.9l-.9 1.9 1.1 1.4 1.3-1.1-1.5-2.2z"/><path id="martinique" class="st0" d="M282.1 290l-1.1 1 .8 1.6 1.5-.4-1.2-2.2z"/><path id="st._lucia" class="st0" d="M282 294l-.7 1.5 1.1 1.2 1.5-.8-1.9-1.9z"/><path id="st._vincent" class="st0" d="M282.1 297.9l-1.2.9 1 1.8 1.6-.9-1.4-1.8z"/><path id="grenada" class="st0" d="M280.6 301.3l-1.1 1.1.4.7h1.4l.4-1.2-1.1-.6z"/><path id="trinidad" class="st0" d="M282.2 304.8l-1.1 1-1.1.2v1.4l2.1 2 .9-1.4.5-1.6-.2-1.3-1.1-.3z"/><path id="puerto_rico" class="st0" d="M271 281.1l-2.6-.9-2.1 1.3 1.1 1.2 3.6.5v-2.1z"/><path id="haiti-dominican_border" class="st0" d="M250.9 275.4l-1.7 1.7 1.9.8.3 2.4-4.2.4.4 2.3 1.2.1.7-1.1 4.9.2.9 1.7 1.1-1.3 3.3-.9 2.9.6.3-1.8-5.3-3.5-3.4-1.3-3.3-.3z"/><path id="domincan_republic" class="st0" d="M263.1 280.4l-5.3-3.5-2.5-.9-.8 6 .9 1.7 1.1-1.3 3.4-.9 2.9.6.3-1.7z"/><path id="haiti" class="st0" d="M250.9 275.4l3.4.4-.4 4.2-.3 2.2-4-.2-.7 1.1-1.2-.1-.4-2.3 4.2-.4-.3-2.4-1.9-.8 1.6-1.7z"/><path id="falklands_west" class="st0" d="M308 508.2l-2.6-.3-2.6 1.8 1.9 2.1 3.3-3.6z"/><path id="falklands_east" class="st0" d="M310.6 506.9l-.9 2.8-2.5 2.2.1.7 4.2-1.6 1.8-2.2-2.7-1.9z"/><path id="iceland" class="st0" d="M406.4 117.3l-2-1.1-2.6 1.7-2.3 2.1.1 1.2 2.9.4-.2 2.1-1 1.1.2.7 2.9.2v3.4l4.2.7 2.5 1.4 2.8.1 4.8-2.4 3.7-4.9.1-3.3-2.3-1.9-1.9-1.6-.9.6-1.3 1.7-1.5-.2-1.5-1.6-1.9.2-2.8 2.3-1.7 1.8-.9-.8-.1-2 .9-.6-.2-1.3z"/><path id="spitsbergen" class="st0" d="M488.3 54l-1.6-1.7-3.7 1.8h-6.7l-1.1 3.9 3.8 3.3 1.6-.2 2.4-4 2 1.4-1.4 2.8-.7 4.2 1.6 2.6 3.5-5.9 4.6-5.6-1.8-1.5-2.5-1.1z"/><path id="nordaustlandet" class="st0" d="M490.3 46.8l-3 2.7 1.8 2.7h3.2l1.3 1.8 3.9 2 4.5-2.6 3.1-2.6-1.1-2.1-3.1-1.8-2.2 2-1.5-1.9-1.2.1-1.5 3.3-2.2-2.3-.2-1.5-1.8.2z"/><path id="edgeoya" class="st0" d="M497 59.1l-2.4 2.1-2 1.5.9 1.7 1.9.6 3.1-1.4 1.4-1.8-1.3-2.1-1.6-.6z"/><path id="prince_george" class="st0" d="M547.8 38.8l1.7.7-1.2 2.1v3l-2.6 1.6H543l-1.5-1.9.2-2.1 1.2-1.6h2.4l2.5-1.8z"/><path id="salisbury" class="st0" d="M554.4 36.9V39l1.7 1.4 2.4-.2 2.1-1.9v-1.4h-1.9l-1.5.5L556 36l-1.6.9z"/><path id="wilczek" class="st0" d="M564.2 37.1l1.2 2.6 2.4.2 1.7-.7-.9-2.4-2.2-.5-2.2.8z"/><path id="bell" class="st0" d="M574 33.6l-1.9-.3-1.7 1.7.9 1.6.5 2.4 2.2-1.7.5-1.9-.5-1.8z"/><path id="novaya_zemlya_north" class="st0" d="M584.5 52l-.5 2.4-4 3.5-8.4 1.9-6.9 11.4-1.2 3.3 6.9 1.7 1-4.2 2.1-6.4 5.3-2.8 4.5-3.5 3.3-1.4h1.7v-4.7l-3.8-1.2z"/><path id="novaya_zemlya_south" class="st0" d="M562.3 77.3l4.7.5 1.5 5.4 4 4.2-1.4 2.8h-2.4l-2.2-2.6-5-.2-2.1-2.8v-1.9l3.1-.9-.2-4.5z"/><path id="komsomolets" class="st0" d="M635 18.1l-2.2-1.4h-2.6l-.5 1.6-2.8 1.6-2.1.7-.3 2.1 4.8.4 5.7-5z"/><path id="october" class="st0" d="M640.3 18.7l-1.2 2.6-2.4-.2-3.8 2.8-1 3.5h2.4l1.4-2.3 3.3 2.4 3.1-1.4 2.2-1.9-.9-3-1.2-2.1-1.9-.4z"/><path id="bolshevik" class="st0" d="M645.3 20.6l1.2 4.9 1.9 4.5 2.1-3.6 4-.9v-2.6l-2.6-1.9-6.6-.4z"/><path id="kotelny" class="st0" d="M739.8 12.8l2.7 2.3 1.9-.8.6-3.2-4-2.7-2.6 1.7-6.3.6v2.8l-6.6.1v4.6l7.7 5.8 2-1.5-.5-4.1 4.9-1.2-1-1.9-1.8-1.8 3-.7z"/><path id="novaya_sibir" class="st0" d="M746.9 10.1l1.8 3.4 7-.8 1.9-2.5-.5-2.1-1.9-.8-1.8 1.4-5.2 1.1-1.3.3z"/><path id="lyakhovsky" class="st0" d="M746.5 23.3l-3.5-.9-2 2.1-.9 2.9 4.7-.5 3.6-1.8-1.9-1.8z"/><path id="wrangel" class="st0" d="M836.7 3.8l-2.9-.9-3.4 1.2-1.7 2.5 2.1 2.8 5.6-2.5 1.1-1.2-.8-1.9z"/><path id="sri_lanka" class="st0" d="M680.5 308l.2 2.7.2 2-1.5.2.7 4.5 2.2 1.2 3.4-2-1-4.7.2-1.7-3.2-3-1.2.8z"/><path id="cuba" class="st0" d="M220.9 266.9v1.3l5.3.1 2.5-1.5.4 1.1 5.2 1.3 4.6 4.2-1.1 1.5.2 1.7 3.9 1 3.9-1.8 1.7-1.8-2.5-1.3-12.9-7.6-4.5-.5-6.7 2.3z"/><path id="bimini" class="st0" d="M239.6 259.1l-1.3-.4-.1 2.4 1.6 1.6 1.1-1.6-1.3-2z"/><path id="andros" class="st0" d="M242.1 262.9l-1.7 1 1.6 2.3.9-1.2-.8-2.1z"/><path id="inagua" class="st0" d="M247.7 264.7l-1.8-.1.2 1.2 1.4 2 1.2-1.3-1-1.8z"/><path id="eleuthera" class="st0" d="M246.9 262.4l-3-1.3-.6-3 1.2-.5 1.2 2.3 1.2.9v1.6z"/><path id="grand_bahama" class="st0" d="M244 256.2l-1.6-.4-.3-1.9-1.6-.6 1.1-1.1 1.9.7 1.4.9-.9 2.4z"/><path id="jamaica" class="st0" d="M238.9 279.6l-3.5.9v1l2 1.2h2.1l1.4-1.6-2-1.5z"/><path id="irian_jaya" class="st0" d="M831.9 339.3l-4.2.5-2.7 2 1.1 2.2 4.5.8v.8l-2.9 2.3 1.4 4.9 1.4.1 1.2-4.8h2.2l.9 4.7 10.8 9 .3 7 3.7 4 1.7-.1.4-24.7-6.3-4.4-5.9 4-2.1 1.3-3.5-2.2-.1-7.1-1.9-.3z"/><path id="alaska-westcopy" class="st0" d="M93.1 44.9l-8.4 2 1.7 9.5 9.1 2.5.5 2L82.5 65l-7.7 12.7 2.7 13.4 4.4 3 3.5-3.2 1 2-4.2 5-16.2 7.4-10.4 2.5-.2 3.7 23.9-7 9.9-2.7 9.1-11.2 10.1-6.7-5.2 8.7 5.7.8 9.6-4.2 1.7 7 6.7 1.5 6.9 6.7.5 5-1 1.2 1.2 4.7h1.7l.2-8h2l.5 19.6 4.9-4.2-3.5-20.4h-5.2l-5.7-7.2 27.9-47.2-27.6-21.6-30.8 6-1.2 9.5 6.7 4-2.5 6.5-8.8-7.4z"/><path id="galapagos" class="st0" d="M195 338.2l-.6 2.8-1.1 1.2.8 1.4 2-.8 1-1.7-.6-1.8-1.5-1.1z"/><path id="banks" class="st0" d="M203.7 35.9l.2 4-8 8.3 2 6.7 5.8-1.6 3.3-4.9 8.4-3.1 6.9-.5L217 39l-2.7 2-2-.7-1.1-2.5-2.4-2.5-5.1.6z"/><path id="prince_patrick" class="st0" d="M214.1 24l-1.8 3.1 8.6 3.1 3.1-4.7 1.3 3.1h2.2l4.2-4.7-5.1-1.3-2-1.6-2.7 2.7-7.8.3z"/><path id="eglinton" class="st0" d="M229.2 30.3l-6.9 2.9v2.2l8.9 3.3-2 2.2 1.3 2.9 5.5-2.5h4.7L243 45l3.8-3.8-.9-3.6-3.1 1.1-.4-4.5 1.6-2.7h-1.6l-2.4 1.6-1.1.9.7 3.1-1.8 1.3-2.7-.2-.7-4-5.2-3.9z"/><path id="mackenzie_king" class="st0" d="M238.3 23.4l-.7 2.2 4.2 2 3.1-1.8-.2-1.3-6.4-1.1z"/><path id="king_christian" class="st0" d="M241.6 19.6l-3.1 1.1.2 1.6 6.9-.5-.2-1.6-3.8-.6z"/><path id="ellef_ringnes" class="st0" d="M256.5 23.4l-.4 1.6-1.1 1.6v2.2l4.2-.7 4.4 3.8h1.5v-3.8l-4.4-4.9-4.2.2z"/><path id="amund_ringnes" class="st0" d="M267.8 27.9l1.8 2-1.5 2.7 1.1 2.9 4.9-2.7v-2l-2.9-3.4-3.4.5z"/><path id="axel_heiberg" class="st0" d="M274.2 22.7l.2 3.6h6l1.5 1.3-.2 1.6-5.3.7 3.8 5.1 5.1.9 7.1-3.1-10.2-15.4-3.1 2 .2 2.7-3.5-1.3-1.6 1.9z"/><path id="victoria" class="st0" d="M222.6 48l-8.4 2.2-4.9 4.2.4 4.7 8.9 2.7-2 4.5-6.4-4-1.8 3.4 4.2 2.9-.2 4.7 6.4 1.8 7.8-.4 1.3-2.5 5.8 6.5 4-1.3.7-4.5 2.9 2 .4-4.5-3.6-2.2.2-14.1-3.1-2.5-3.3 4.5-9.3-8.1z"/><path id="prince_of_wales" class="st0" d="M249.6 57.8l-2.9-1.3-1.6 2 3.1 4.9.2 4.7 6.6-4v-5.8l2.4-2.5L255 54h-4l-1.4 3.8z"/><path id="prescott" class="st0" d="M263.8 55.8l-4.7 3.8 1.1 4.7h2.9l1.3-2.5 2 2 2-.2 5.3-4.5-9.9-3.3z"/><path id="cornwallis" class="st0" d="M263.4 48.4l-1.1 2.2 4.9 1.8 1.3-2-5.1-2z"/><path id="bathurst" class="st0" d="M260.5 39.9l-4.9.7-2.9 2.7 5.3.2-1.5 4 1.1 1.8 1.5-.2 3.8-6-2.4-3.2z"/><path id="devon" class="st0" d="M268.9 38.3l-2.7.9.4 3.6 4.4 2.9.2 2.2-1.3 1.3.7 4.5 17.1 5.6 4.7 1.6 4.7-4-5.5-4.5-5.1 1.3-7.1-.7-2.7-2.7-.7-7.3-4.4-2.2-2.7-2.5z"/><path id="baffin" class="st0" d="M282.9 61.6l-4.9-.5-5.8 2.2-3.1 4.2.9 11.6 9.5.4 9.1 4.5 6.4 7.4 4.9-.2-1.3 6.9-4.4 7.4-4.9 2.2-3.5-.7-1.8-1.6-2.7 3.6 1.1 3.6 3.8.2 4.7-2.2 4 10.3 10 6.5 6.9-8.7-5.8-9.4 3.3-3.8 4.7 7.8 8.4-7.4-1.5-3.3-5.8 1.8-4-10.9 3.8-6.2-7.5-8-4.2 2.9-4-8.7-8.4 1.1-2.2-10.5-6.9 4.7-.7 5.8h-3.8l.4-5.1 5.3-7.9z"/><path id="bylot" class="st0" d="M292.9 65.6l-1.8 1.8 1.5 2.5 7.3.9-4.7-4.9-2.3-.3z"/><path id="ellesmere" class="st0" d="M285.8 40.4v2l-4.9 1.1 1.3 2.2 5.5 2.2 6.2.7 4.4 3.1 4.4-2.5-3.1-3.1h4l2.4-2.7 6-.9v-1.3l-3.3-2.2.4-2.5 9.3 1.6 13.8-5.4-5.1-1.6 1.3-1.8H339l1.8-1.8-21.4-7.5-5.1-1.8-5.5 4-6.2-5.1-3.3-.2-.7 4.2-4.2-3.8-4.9 1.6.9 2.5 7.3 1.6-.4 3.6 4 2.5 9.8-2.5.2 3.4-8 3.8-4.9-3.8-4.4.5 4.4 6.3-2.2 1.1-3.3-2.9-2.4 1.6 2.2 4.2h3.8l-.9 4-3.1-.5-4-4.2-2.7.3z"/><path id="southhampton" class="st0" d="M266 101.8l-4.2 5.3-.3 5.9 3.7-2.1h4.5l3.2 2.9 2.9-2.4-9.8-9.6z"/><path id="newfoundland" class="st0" d="M317.5 171.1l-10.6 10.1 1.1 2.4 12.9 4.8 1.9-3.2-1.1-5.3-4.2.5-2.4-2.7 4-4-1.6-2.6z"/><path id="canada" class="st0" d="M158.2 48.7l2 3 1 4 5 1.2 3.5-3.8 3 1.5 8.5.8 6-2.5 1 8.3h3.5v-3.5l3.5.2 8.7 10.3 5.7 3.5-3 4.8 1.2 1.2L219 80l.2 5 3 .5.8-7.5 4.7-1.2 3.5 5.3 7.5 3.5 3.7.8 2.5-3 .2-4.8 4.5-2.8 1.5 4-4 7 .5 3.5 2.2-3.5 4.5-4 .2-5.3-2.5-4 .8-3.3 6-3 2.7 2 .5 17.6 4.2-3.8 2.5 1.5-3.5 6 4.5 1 6.5-10 5.5 5.8-2.2 10.3-5.5 3-5.2-2.5-9.5 2 1 3.3-2.5 4-7.7 1.8-8.7 6.8-7.7 10.3-1 3.3 5.2 2 2 5 7.2 7.3 11.5 5-2.5 11.5-.2 3.3 3 2 4-5.3.5-10 6.2-.2 3-5.8.5-8.8 8-15.6 10 3.5 5.2 7.3-2.3 7.2 4 2.3 9.7-6.5 2.7 17.8 9 10.8.2 5.5-10 2.5-4.7 5-10-2.3-5-.2-8.7 6.8 5.2-1.2 6.5-1.2 1.2 1.5-1.7 5.5.2 5 3 2 3-.8 1.5-2.3h2l-3.2 6-6.2.2-2.7 4h-3.5l-1-3 5-5-6 2-.3-8.5-1.7-1-5.2 2.3-.5 4.3h-12l-10.2 7-13.7 4.5-1.5-2 6.9-10.3-3.9-3.8-2.5-4.8-5.1-3.9-5.4-.4-9.8-6.8-70.6-11.6-1.2-4.8-6.5-6v-5l1-4.5-.5-2.5-2.5-2.5-.5-4 6.5-4.5-4-21.6-5.5-.2-5-6.5 27.4-46.6z"/><path id="usa" class="st0" d="M148.8 158.3l-1 4-3.5-2.3h-1.7l-1 4.3-12.2 27.4 3.2 23.8 4 2 .8 6.5h8.2l8 6 15.7 1.5 1.7 8 2.5 1.8 3.5-3.5 2.7 1.2 2.5 11.5 4.2 2.8 3.5-6.5 10.7-7.8 7 3.3 6 .5.2-3.8 12.4.2 2.5 2.8.5 6.3-1.5 3.5 1.7 6h3.7l3.7-5.8-1.5-2.8-1.5-6 2.2-6.8 10.2-8.8 7.7-2.3-1-7.3 10.7-11.6 10.7-1.8-1.7-6 10.5-6v-8l-1-.5-3.7 1.2-.5 4.9-12.4.1-9.7 6.5-15.3 5-2.4-3 6.9-10.5-3.4-3.3-2.3-4.4-4.8-3.9-5.2-.4-9.9-6.8-70.6-11.2z"/><path id="haida_gwaii" class="st0" d="M133.8 128.4l-1.7 3.3.6 2.3 1.1.7-.3.9-1.2.3.3 3.4 1.3 1.3 1-1.1-1.3-3.3.8-2.7 1.9-2.5-1.4-2.3-1.1-.3z"/><path id="vancouver" class="st0" d="M139.4 147.9l-1.5.6 2.8 3.3.7 3.9 2.8 3 2.4-.4v-3.9l-2.9-1.8-4.3-4.7z"/><path id="guatemala" class="st0" d="M194.9 291.5l5.9 4.3 6-7.4-1-1.5-2-.1v-4.4l-1.5-.9-4.6 1.4 1.8 4.1-4.6 4.5z"/><path id="honduras" class="st0" d="M207.6 288.8l9.2-.4 2.7 3.3-1.7-.4-3.3.1-4.3 4-1.8 4.1-1.2-.6v-4.5l-2.7-1.8 3.1-3.8z"/><path id="el_salvador" class="st0" d="M201.6 296.3l4.7 2.3-.1-3.7-2.4-1.5-2.2 2.9z"/><path id="nicaragua" class="st0" d="M217.7 292.1l2.2.4.1 4.5-2.6 7.3-6.9-.7-1.5-3.5 2-4.3 3.9-3.6 2.8-.1z"/><path id="costa_rica" class="st0" d="M217.4 305l1.4 2.7 1.1 1.5-1.5 4.5-2.9-2-4.7-4.3v-2.9l6.6.5z"/><path id="panama" class="st0" d="M220.6 309.6l-1.5 4.6 4.8 1.2 3 .6.5-3.5 3.2-1.6 2.9 1.5 1.1 1.8 1.4-.2 1.1-3.2-3.6-1.5-2.7-1.5-2.7 1.8-3.2 1.6-3.3-1.3-1-.3z"/><path id="colombia" class="st0" d="M253.7 299.8l-2.1-.2-13.6 11.2-1.4 4-1.9.2.8 8.7-4.8 11.6 5.2 4.4 6.6.4 4.5 6.7 6.6.2-.2 5h2.5l2.7-9.1-2.5-3.1.6-5.8 5.2-.4-.6-13.5-11.6-3.7-2.7-7.3 6.7-9.3z"/><path id="venezuela" class="st0" d="M250.5 305.9l.4 2.6 3.2 1 .7-4.8 3.4-3.5 3.4 4 7.9 2.1 6.7-1.4 4.5 5.6 3.4 2.1-3.8 5.7 1.3 4.3-2.1 2.7-2.2 1.9-4.8-2.4-1.1 1.1v3.5l3.5 1.7-2.6 2.8-2.6 2.8-3.4-.3-3.5-3.8-.7-14.3-11.8-4-2.1-6.3 2.3-3.1z"/><path id="guyana" class="st0" d="M285 314.1l7.2 6.5-2.9 3.3-.2 2 3.8 3.9-.1 3.7-6.6 2.5-3.9-5.3.8-6.4-1.7-4.8 3.6-5.4z"/><path id="suriname" class="st0" d="M293.1 321.1l2 1.9 3.2-2 2.9.1-.4 1.1-1.2 2.5-.2 6.3-5.8 2.3.3-4-3.7-3.5.2-1.8 2.7-2.9z"/><path id="guyane" class="st0" d="M302.1 321.8l5.9 3.6-3.1 6.1-1.1 1.4-3.2-1.9.1-6.5 1.4-2.7z"/><path id="ecuador" class="st0" d="M230.2 335.9l-4.7 2.9-.3 4.4-.9 1.4 3 2.9-1.3 1.4.3 3.6 5.3 1.3 8.1-9.5V341l-3.9-.2-5.6-4.9z"/><path id="peru" class="st0" d="M225 349.5l-1.9 2 .1 3.1 16.9 30.9 17.6 11.3 2.7-4.6.6-10-1.4-6.2-4.8-8.1-2.9.9-1.3 1.4-5.7-6.5 1.4-7.7 6.6-4.3-.5-4-6.7-.3-3.5-5.9-1.9-.6.1 3.5-8.7 10.3-6.5-1.6-.2-3.6z"/><path id="bolivia" class="st0" d="M258.7 372.8l8.2-3.6 2.7.3 1.8 7.6 12.5 4.2 2.1 6.4 5.2.6 2.2 5.5-1.5 5-8.4.6-3.1 8-6.6-.1-2.1-.4-3.8 3.7-1.9-.2-6.5-15 1.8-2.7.7-10.7-1.6-6.3-1.7-2.9z"/><path id="paraguay" class="st0" d="M291.8 399.5l2.2 2.4-.3 5.1 6.3-.4 4.8 6.1-.4 5.5-3.1 4.7-6.3.3-.3-2.6 1.8-4.3-6.2-3.9h-5.2l-3.9-4.2 2.8-8.1 7.8-.6z"/><path id="uruguay" class="st0" d="M300.4 431.9l-2 2.2.9 11.8 6.4 1.9 8.2-8.2-13.5-7.7z"/><path id="argentina" class="st0" d="M305.5 418.2l1.9 1.8-7.4 11-2.6 2.9.9 12.5 5.7 6.9-4.8 8.3-3.6 1.6h-4.1l1.2 6.5-6.5 2.2 1.5 5.5-3.9 12.4 4.8 3.9-2.6 6.4-4.4 6.9 2.3 4.8-5.7.9-4.7-5.7-.8-17.9-7.2-30.3 2.2-10.6-4.7-13.5 3.1-17.6 2.9-3.4-.7-2.6 3.7-3.3 8.2.6 4.6 4.9 5.3.1 5.4 3.3-1.6 3.7.4 3.8 7.6-.4 3.6-5.6z"/><path id="tierra_del_fuego_chile" class="st0" d="M285 514.1l-4.3 9.4 7.4.8.1-6.2-3.2-4z"/><path id="tierra_del_fuego_argentina" class="st0" d="M288.9 518.8l.3 5.7 4.4-.4 3.8-2.5-6.3-1.3-2.2-1.5z"/><path id="chile" class="st0" d="M283.6 512.6l-3.2 3.5-.4 4.2-6.2-3.5-6.6-9.5-1.9-3.4 2.7-3.5-.3-4.4-3.1-1.3-2.5-1.8.5-2.5 3.2-.9.6-14.3-5-2.9-3.3-74.6.9-1.5 6.4 14.9h2.1l.7 2.4-2.7 3.3-3.1 17.9 4.5 13.8-2.1 10.4 7.3 30.6.8 17.9 5.2 6.1 5.5-.9z"/><path id="chiloe" class="st0" d="M262.3 475.1l-1.3 2 .6 3.4 1.3.1.6-4.3-1.2-1.2z"/><path id="brazil" class="st0" d="M314.2 438.9l6.2-12 .2-10.1 11.7-7.5h6.5l5.1-8.7.9-16.7-2.1-4.5 12.4-11.3.5-12.5-16.8-8.2-20.3-6.3-9.6-.9 2.6-5.4-.7-8.2-2.1-.7-3.1 6.1-1.6 2-4.2-1.8-14 4.9-4.7-5.9.8-6.1-4.4 4.5-4.9-2.6-.5.7v2.1l4.2 2.2-6.3 6.6h-4l-4-4.1-4.5.1-.6 4.9 2.6 3.2-3.1 9.9-3.6.3-5.7 3.6-1.4 7.1 5 5.3.9-1 3.5-.9 3 5 8.5-3.7 3.3.2 2.3 8.1 12.2 3.9 2.1 6.4 5.2.6 2.5 6.1-1.7 5.5 2.2 2.9-.3 4.3 5.8-.5 5.4 6.8-.4 4.8 3.2 2.7-7.6 11.5 13.4 7.3z"/><path id="belize" class="st0" d="M204.6 282.4l-.1 3.6h.8l2.9-5.3h-1.9l-1.7 1.7z"/><path id="russia" class="st0" d="M818 72.9l1.8 6.1 3.5 1 3.5-5.6-2-3.8.8-3.3h5.3l-1.3 2.5.4 9.2-7.5 18.7.8 4.1-.2 6.8 14.1 20.5 2.8.8.2-16.7 2.8-2.5-3-6.6 2.5-2.8L837 94l-3 .2-1-12.2 7.8-2 .5-3.6 4-1 2.3 2 2.8-11.1 4.8-8.1 3.8-2 3.3.2v-3.8l-5.3-1-7.3-6.1 3.5-4-3-6.8 2.5-2.5 3 4 7.5 2.8 8.3.8 1-3.5-4.3-4.3 4.8-6.6-10.8-3.8-2.8 5.6-3.5-4.6-19.8-6.8-19.2 3.2-2.8 1.5V22l4 2-.5 4.8-7.3-3-16.1 6.3-2.8-5.8h-11.1l-5 5.3-17.8-4-16.3 3.3-2 5.1 2.5.8-.2 3.8-15.8 1.8 1 5.1-14.6-2.5 3.5-6.6-14.8-.8 1.3 6.8-4.8 2.3-4-3.8-16.3 2.7-6.3 5.8-.2 3.5-4 .2-.5-4L678.7 40v-7.6l-8.3-2.3-10.8 3.5-4.5-4.6h-2l-2.5 5.1 2 2.3-14.3 7.8-12.3 9.5-7.5 10.4v4.3l8 3.3-4 3-8.5-3-3.5 3-5.3-6.1-1 2.3 5.8 18.2 1.5.5 4-2 2 1.5v3.3l-3.8-1.5-2.3 1.8 1.5 3.3-1.3 8.6-7.8.8-.5-2.8 4.5-2.8 1-7.6-5-6.6-1.8-11.4-8-1.3-.8 4.1 1.5 2-3.3 2.8 1.3 7.6 4.8 2 1 5.6-4.8-3-12.3-2.3-1.5 4.1-9.8 3.5-1.5-2.5-12.8 7.1-.2 4.8-5 .8 1.5-3.5v-3.5l-5-1.8-3.3 1.3 2.8 5.3 2 3.5v2.8l-3.8-.8-.8-.8-3.8 4.1 2 3.5-8.5-.2 2.8 3.6-.8 1.5h-4.5l-3.3-2.3-.8-6.3-5.3-2v-2.5l11.1 2.3 6 .5 2.5-3.8-2.3-4.1L523 100l-5.5 1.4-1.9 1.6.6 3.8 2.4.4-.5 5.9 7.3 17.1-5.3 8.3-.4 1.9 2.7 1.9-2.4 1.6h-1.6l.3 7.4 2.2 3.1v3l2.8.3 4.3 1.6 4.6 6.3v1.7l-1.5 2.6 3.4-.2 3.3 1 4.5 6.4 11.1 1-.5 7.6-3.8 3.3.8 1.3-3.8 4.1-1 3.8 2.3 3.3 7.3 2.5 3-1.8 19.3 7.3.8-2-4-3.8v-4.8l-2.5-.8.5-4.1 4-4.8-7.2-5.4.5-7.5 7.7-5.1 9 .5 1.5 2.8 9.3.5 6.8-3.8-3.5-3.8.8-7.1 17.6-8.6 13.5 6.1 4.5-4.1 13.3 12.7 10-1 3.5 3.5 9.5 1 6.3-8.6 8 3.6 4.3.8 4.3-3.8-3.5-2.9 3.3-5.1 9.3 3 2 4.1 4 .2 2.5-1.8 6.8-.2.8 1.8 7.8.5 5.3-5.6 10.8 1.3 3.3-1.3 1-6.1-3.3-7.3 3.3-2.8h10.3l9.8 11.6 12.6 7.1h3.8l.5-3 4.5-2.8.5 16.5-4 .2v4.1l2.3 2.8-.4 3.6 1.7.7 1-2.5 1.5.5 1 1 4.5-1 4.5-13.2.5-16.5-5.8-13.2-7.3-8.9-3.5.5v2.8l-8.5-3.3 3.3-7.1 2.8-18.7 11.6-3.5 5.5-3.5h6l-1.5 2 1.5 2.5 5.3-5.6 3 .2-.5-3.3-4.8-1 3.3-11.9 4.1-3.9z"/><path id="china" class="st0" d="M670.4 170.1l-3.5 8.7-4.8-.2-5 11 4.3 5.4-8.8 12.1-4.5-.8-3 3.8.8 2.3 3.5.2 1.8 4.1 3.5.8 10.8 13.9v7.1l5.3 3.3 5.8-1 7.3 4.3 8.8 2.5 4.3-.5 4.8-.5 10-6.6 3.3.5 1.2 3 2.8.8 3.8 5.6-2.5 5.6 1.5 3.8 4.3 1.5.8 4.6 5 .5.8-2.3 7.3-3.8 4.5.2 5.3 5.8 3.5-1.5 2.3.2 1 2.8 1.8.2 2.5-3.5 10-3.8 9-10.9 3-10.4-.2-6.8-3.8-.8 2.3-2.5-.5-4.1-9.5-9.6v-4.8l2.8-3.5 2.8-1.3.2-2.8h-7l-1.3 3.8-3.3-.8-4-4.3 2.5-6.6 3.5-3.8 3.3.2-.5 5.8 1.8 1.5 4.3-4.3 1.5-.2-.5-3.3 4-4.8 3 .2 1.8-5.6 2.1-1.1.2-3.5-2-2.1-.2-5.5 3.8-.2-.2-14.1-2.7 1.6-1 3.6h-4.5l-13.1-7.4-9.4-11.4-9.6-.1-2.4 2.1 3.1 7.1-1.1 6.7-3.9 1.6-2.2-.2-.2 6.6 2.3.5 4-1.8 5.3 2.5v2.5l-3.8.2-3 6.6-2.8.2-9.8 12.9-10.3 4.6-7 .5-4.8-3.3-6.8 3.6-7.3-2.3-1.8-4.8-12.3-.8-6.5-10.6h-2.8l-2.2-4.9-2.9.3z"/><path id="mongolia" class="st0" d="M673.8 170.2l5.8-7.7 7 3.2 4.8 1.3 5.8-5.3-4-2.9 2.6-3.7 7.8 2.7 2.7 4.4 4.9.1 2.5-1.9 5.2-.2 1.1 1.9 8.7.4 5.5-5.6 7.6.8-.4 7.6 3.3.8 4.1-1.9 4.3 2.1-.1 1.1-3.1.1-3.3 6.9-2.5.2-9.9 12.9-10.1 4.4-6.3.5-5.2-3.4-6.7 3.6-6.6-2.1-1.9-4.8-12.5-.9-6.4-10.9-3.1-.2-1.6-3.5z"/><path id="north_korea" class="st0" d="M778.3 194.3l1.8.8.6 6.4 3.7.2 3.4-4-1.2-1.1.1-4.3 3.2-3.8-1.6-2.9 1-1.2.6-3-1.8-.8-1.6.8-1.9 5.9-3.1-.3-3.6 4.3.4 3z"/><path id="south_korea" class="st0" d="M788.3 198.2l6.2 5 1 4.9-.2 2.6-3 3.4-2.6.1-3-6.4-1.1-3 1.2-.9-.3-1.3-1.5-.7 3.3-3.7z"/><path id="kazakhstan" class="st0" d="M576.7 188.6l4.1-1.8 4.6-.2.3 7H583l-2 3.3 2.7 4.4 4 2.2.4 2.6 1.5-.5 1.3-1.6 2.2.5 1.1 2.2h2.8v-2.9l-1.7-5.1-.8-4.1 5-2.2 6.8 1.1 4.3 4.3 9.6-.9 5.4 7.6 6.3.3 1.7-2.9 2.2-.5.3-3.2 3.3-.2 1.7 2.1 1.7-4.1 15 2.1 2.5-3.3-4.3-5.2 5.7-12.4 4.6.3 3.2-7.6-6.3-.6-3.6-3.5-10 1.2-12.9-12.4-4.5 4-13.8-6.2-16.9 8.3-.5 5.9 4 4.6-7.7 4.4-10-.2-2.1-3.1-7.8-.4-7.4 4.8-.2 6.5 6.9 5.4z"/><path id="turkmenistan" class="st0" d="M593.8 207.6l-.6 2.6H589v3.6l4.5 2.9-1.4 4v1.9l1.8.3 2.5-3.2 5.5-1.2 11.8 4.5.2 3.2 6.6.6 7.4-7.8-.9-2.5-4.9-1.1-13.8-9-.6-3.2h-5.2l-2.3 4.3h-2.3l-4.1.1z"/><path id="uzbekistan" class="st0" d="M628.9 219.1l3.1.2V214l-2.9-1.7 4.9-6.2h2l2 2.3 5.2-2-7.2-2.5-.3-1.5-1.7.4-1.7 2.9-7.3-.2-5.3-7.6-9.4.9-4.5-4.4-6.2-1.1-4.5 1.8 2.6 8.7v2.9h1.9l2.3-4.4 6.2.1.9 3.4 13.3 8.8 5.1 1.2 1.5 3.3z"/><path id="tajikistan" class="st0" d="M630.2 211.8l4.1-5.1h1.5l.5 1.1-1.9 1.4v1.1l1.2.9 6 .4 2-.8.9.2.6 1.9 3.6.4 1.8 3.8-.5 1.1-.7.1-.7-1.4-1.5-.1-2.7.4-.2 2.5-2.7-.2.1-3.2-2-1.9-3 2.5.1 1.6-2.6.9h-1.5l.1-5.6-2.5-2z"/><path id="kirgizstan" class="st0" d="M636.8 199.2l-.3 2.5.2 1.6 8.7 2.9-7.6 3.1-.9-.7-1.7 1.1.1.6.9.4 5.4.1 2.7-.8 3.5-4.4 4.4.8 5.3-7.3-14.1-1.9-2 4.7-2.5-2.6-2.1-.1z"/><path id="afghanistan" class="st0" d="M614.1 227.1l1.6 12.5 4 .9.4 2.2-2.8 2.4 5.3 4.3 10.3-3.7.8-4.4 6.5-4 2.5-9.4 1.8-2-1.9-3.3 6.3-3.9-.8-1.1-2.9.2-.3 2.7H641l-.1-3.6-1.2-1.5-2.1 1.9.1 1.8-3.2 1.2-5.8-.4-7.6 8-7-.8z"/><path id="pakistan" class="st0" d="M623.1 249.8l2.6 3.9-.2 2-3.5 1.4-.2 3.2h4l1.4-1.1h7.5l6.8 6 .9-2.9h5.1l.1-3.6-5.2-5 1.1-2.7 5.3-.4 7.2-14.9-4-3.1-1.5-5.2 9.6-.9-5.7-8.1-3-.8-1.2 1.5-.9.1-5.7 3.6 1.9 3.1-2.1 2.2-2.6 9.6-6.4 4.1-.9 4.5-10.4 3.5z"/><path id="india" class="st0" d="M671 313l4.6-2.2 2.7-9.8-.1-12.1 15.6-16.8v-4l3.2-1.2-.1-4.6-3.5-6.7 2-3.6 4.3 4 5.6.3v2.2l-1.7 1.9.4 1 3 .1.6 3.4h.9l2.2-4 1.1-10.5 3.7-2.6.1-3.6-1.5-2.9-2.3-.1-9.2 6.1.6 3.9h-6.5l-2.3-2.8-1.2.2.4 3.9-14-1-8.7-3.9-.5-4.8-5.8-3.6-.1-7.4-4-4.5-9.1.9 1 4 4.5 3.6-7.7 15.8-5.2.4-.8 1.9 5.1 4.7-.2 4.8-5.2-.1-.6 2.4 4.3-.2.1 1.9-3.1 1.6 2 3.7 3.8 1.2 2.3-1.7 1.1-3.1 1.4-.6 1.6 1.6-.5 4-1.1 1.9.2 3.2L671 313z"/><path id="nepal" class="st0" d="M671.2 242.6l.5 4.3 8.1 3.7 13 1-.5-3.1-8.7-2.4-7.3-4.4-5.1.9z"/><path id="bhutan" class="st0" d="M695.4 248.1l1.5 2.1h5.2l-.5-2.9-6.2.8z"/><path id="bangladesh" class="st0" d="M695.6 253.1l-1.3 2.4 3.4 6.5.1 5 .6 1.4 4 .1 2.3-2.2 1.6 1 .3 3.1 1.3-.8.1-3.9-1.1-.1-.7-3.3-2.8-.1-.7-1.9 1.7-2.3v-1.1h-4.9l-3.9-3.8z"/><path id="burma" class="st0" d="M729.4 303.6l-2.8-4.4 2-2.8-1.9-3.5-1.8-.3-.3-5.9-2.7-5.2-.8 1.2-1.8 3-2.2.3-1.1-1.5-.6-4-1.7-3.2-6.8-6.5 1.7-1.1.3-4.7 2.5-4.2 1.1-10.4 3.6-2.5.1-3.8 2.2.7 3.4 4.9-2.5 5.4 1.7 4.3 4.2 1.7.8 4.6 5.7.9-1.6 2.7-7.2 2.8-.8 4.6 5.3 6.8.2 3.6-1.2 1.2.1 1.1 3.9 5.8.1 6-1.1 2.4z"/><path id="thailand" class="st0" d="M730 270.5l3.2 4.2v5.1l1.1.6 5.2-2.5 1 .3 6.2 7.1-.2 4.9-2-.3-1.8-1.1-1.3.1-2.3 3.9.5 2.1 1.9 1-.1 2.4-1.3.7-4.6-3.2V293l-1.9-.1-.8 1.2-.4 12.6 3 5.4 5.3 5.1-.2 1.5-2.8-.1-2.6-3.8h-2.7l-3.4-2.7-1-2.8 1.5-2.4.5-2.1 1.6-2.8-.1-6.4-3.9-5.6-.2-.7 1.2-1.3-.3-4.4-5.1-6.5.6-3.8 6.2-2.8z"/><path id="malaysia" class="st0" d="M732.7 315.5l2 4.5.5 5.9 2.7 4.2 6.5 3.9 2.5.2-.5-4.1-2.1-5.2-3.1-6.6-.3 1.2-3.8-.2-2.7-3.9-1.7.1z"/><path id="cambodia" class="st0" d="M740.5 299.5l4.1 4.4 7.6-5.6.7-8.9-3.9 2.7-2-1.1-2.8-.4-1.5-1.1h-.8l-2 3.3.3 1.5 2.1 1.1-.2 3.1-1.6 1z"/><path id="laos" class="st0" d="M735.5 262.9l-2.4 1.2-2 5.9 3.4 4.3-.6 4.7.6.2 5.6-2.7 7.5 8.4-.2 5.3 1.6.9 4-3.3-.3-2.6-11.6-11 .1-1.7 1.5-1-1-2.8-4.8-.8-1.4-5z"/><path id="vietnam" class="st0" d="M745.1 304.5l1.2 1.9.2 2.1 3.1.3 3.8-5.1 3.6-1 1.9-5.2-.9-8.3-3.7-5.1-3.9-3.1-5-8.5 3.5-5.9-5.1-5.8-4.1-.2-3.7 2 1.1 4.7 4.9.9 1.3 3.6-1.7 1.1.1.9 11.5 11.2.5 3.3-.7 10.4-7.9 5.8z"/><path id="georgia" class="st0" d="M555.5 204.2l3.3 4.3 4.1 1.9h2.5l4.3-1.2 1.1-1.7-12.8-4.8-2.5 1.5z"/><path id="armenia" class="st0" d="M569.7 209.9l4.8 6.3-1.4 1.6-3.4-.6-4.2-3.8.2-2.5 4-1z"/><path id="azerbaijan" class="st0" d="M571.4 207.7l-1 1.7 4.7 6.2 1.6-.5 2.7 2.8 1.2-5 2.9.5-.1-1.4-4.8-4.2-.9 2.5-6.3-2.6z"/><path id="iran" class="st0" d="M569.7 217.9l-1.2 1.3.1 2 1.5 2.1 5.4 5.9-.8 2.4h-.9l-.5 2.4 3 3.9 2.8.2 5.6 7.8 3.2.2 2.5 1.8.1 3.5 9.7 5.7h3.6l2.2-1.9 2.8-.1 1.6 3.8 10.5 1.5.3-3.9 3.5-1.3.2-1.4-2.8-3.8-6.2-5 3.2-2.9-.2-1.3-4.1-.6-1.7-13.7-.2-3.1-11-4.2-4.9 1.1-2.7 3.4-2.4-.2-.7.6-5.4-.4-6.8-5-2.5-2.8-1.2.3-2.1 2.4-3.5-.7z"/><path id="turkey" class="st0" d="M558.7 209.2l-2.2 2.4-8.2-.2-4.9-2.9-4.8-.1-5.5 3.9-5.2.2-.5 2.9h-5.9l-2.3 2.1v1.2l1.4 1.2v1.3l-.6 1.5.6 1.3 1.9-.9 1.9 2-.5 1.4-.7.9 1 1.2 5.2 1.1 3.6-1.5V226l1.8.4 4.2 2.5 4.6-.7 2-1.9 1.3.5v2.1h1.8l1.5-2.9 13.4-1.4 5.8-.7-1.5-2v-2.7l1.2-1.4-4.3-3.4.2-2.9h-2.3l-4-2.3z"/><path id="yemen" class="st0" d="M572 289.2l1.4 4.3v4.2l3.5 3.1 24.4-9.9.2-2.7-3.9-7-9.8 3.1-5.6 5.5-6.5-3.9-3.7 3.3z"/><path id="oman" class="st0" d="M598.4 280.8l7.4-4.3 1.3-6.2-1.6-.9.7-6.7 1.4-.8 1.5 2.4 9 4.7v2.6l-10.9 16-5 .2-3.8-7z"/><path id="emirates" class="st0" d="M594 264.9l.9 3.5 9.9.9.7-7.1 1.9-1 .5-2.6-3.1.9-3.5 5.2-7.3.2z"/><path id="qatar" class="st0" d="M592.6 259l-.5 4 1.5 1.2 1.4-.1.5-5-1.2-.9-1.7.8z"/><path id="kuwait" class="st0" d="M583.3 247.2l-2.2-1.2-1.6 1.6.2 3.1 3.6 1.4v-4.9z"/><path id="saudi" class="st0" d="M584 253.2l7 9.8 2.3 1.8 1 4.4 10.8.9 1.2.6-1.2 5.4-7.1 4.2-10.4 3.1-5.5 5.4-6.6-3.8-4 3.5-5.5-9.1-3.8-1.7-1.4-2.1V271L547 254.3l-.5-3h4l4.8-4.2.2-2.1-1.4-1.4 2.8-2.3 5.9.4 10 8.4 5.9-.3.4 1.5 4.9 1.9z"/><path id="syria" class="st0" d="M546.7 229.1l-.3 2.5 2.8 1.2-.1 7 2.8-.1 2.8-2.1 1.1-.2 6.4-5.1 1.3-7.4-12.8 1.3-1.3 3-2.7-.1z"/><path id="iraq" class="st0" d="M564.3 225l-1.6 7.7-6.5 5.4.4 2.5 6.3.4 10 8.2 5.6-.2.2-1.9 2.1-2.2 2.9 1.6.4-.4-5.6-7.4-2.6-.2-3.5-4.5.7-3.3 1.1-.1.4-1.5-4.8-5-5.5.9z"/><path id="jordan" class="st0" d="M548.9 240.8l-2.5 8.6-.1 1.3h3.9l4.3-3.8.1-1.4-1.8-1.8 3.2-2.6-.5-2.4-.9.2-2.6 1.9h-3.1z"/><path id="lebanon" class="st0" d="M546.2 232.4l.1 1.9-.8 3 2.8.2.2-4.2-2.3-.9z"/><path id="israel" class="st0" d="M545.3 238.1l-1.6 5 2 6 2.3-8.8v-1.9l-2.7-.3z"/><path id="cyprus" class="st0" d="M543.2 229.8l1.2.9-3.8 3.6-1.8-.1-1.3-.9.2-1.8 2.8-.2 2.7-1.5z"/><path id="norway" class="st0" d="M515.5 102.1l2-1.5-.2-1.7-1.3-.7.2-2h1.1v-1.1l-4.8-1.3-7.1.7-.7 3.1-1.6-.5-1.1-1.8-3.5.2-.5 3.5-1.6.7-.9-1.8-7.3 5.9 1.5 1.7-2.8 1.3-6.2 12.4-2.2 1.5.2 1.1 2.2 1.1-.5 2.4-3.7-.2-1.1-1.3-2.4 2.8-1.5 1.1-.4 2.6-1.3.7-3.3.7-1.6 5.2 1.1 8.5 1.3 3.9 1.5 1.5 3.3-.2 4.8-4.6 1.8-3.1.5 4.6 3.1-5.5.2-15.5 2.5-1.6.8-8.6 7.7-11.1 3.7-1.3 1.6-2 5.5 1.3 2.8 1.7.9-4.6 4.6-2.8 2.7 4.6z"/><path id="britain" class="st0" d="M446.1 149.1l-1.8 2.8.7 1.1h4.2v1.9l-1.1 1.5.7 3.9 2.4 4.6 1.8 4.2 2.9 1.1 1.3 2.2-.2 2-1.8 1.1-.2.9 1.3.7-1.1 1.5-2.6 1.1-5-.6-7.7 3.5-2.6-1.3 7.3-4.2-.9-.6-3.9-.4 2.4-3.5.4-3 3.1-.4-.5-5.7-3.7-.2-1.1-1.3.2-4.2-2.2.2 2.2-7.4 4-3 1.5 1.5z"/><path id="ulster" class="st0" d="M438.4 161.5l-3.3.4-.2 3 2.2 1.5 2.4-.6.9-1.7-2-2.6z"/><path id="ireland" class="st0" d="M439.5 166.6l-.9 6-8.1 3H428l-1.8-1.3v-1.1l4-2.6-1.1-2.2.2-3.1 3.5.2 1.6-3.8-.2 3.3 2.7 2.1 2.6-.5z"/><path id="sweden" class="st0" d="M497.7 104.6l2 1.8h3.7l2 3.9.5 6.7-5 3.5v3.5l-3.5 4.8-2 .2-2.8 4.6.2 4.4 4.8 3.5-.4 2-1.8 2.8-2.8 2.4.2 7.9-4.2 1.5-1.5 3.1h-2l-1.1-5.5-4.6-7 3.8-6.3.3-15.6 2.6-1.4.6-8.9 7.4-10.6 3.6-1.3z"/><path id="finland" class="st0" d="M506.8 116.9l2.1.9 1.3 2.4-1.3 1.7-6.4 7-1.1 3.7 1.5 5.4 5 3.7 6.6-3.1 5.3-.7 5-7.9-3.7-8.7-3.5-8.3.5-5.4-2.2-.4-.6-3.9-3-4.8-3.3 2.3-1.3 5.3-3.5-2.1-4.8-1.2-1.1 1.3 1.9 1.7 3.4-.1 2.7 4.4.5 6.8z"/><path id="path302" class="st0" d="M518.1 151.4l-6.9-1.1.1 3.8 6.3 3.9 2.6-.8-.2-2.9-1.9-2.9z"/><path id="hiumaa" class="st0" d="M506.8 147.6l-1.5-.1-.9.9.6 1 1.5.1.8-1.2-.5-.7z"/><path id="saaremaa" class="st0" d="M506.6 151.7l-1.5-.1-2.7 3.2v1.5l.9.4 1.8.1 2.9-2.4.4-.8-1.8-1.9z"/><path id="lithuania" class="st0" d="M510.8 154.7l-2.1-.1-3 2.8h-2.5l.1 3.5-1.5 2.8 5.4.1 1.5-.2 1.5 1.9 3.6-.1 3.4-4.3-.2-2.6-6.2-3.8z"/><path id="belarus" class="st0" d="M510.7 166.3l1.5 2.5-.6 2 .1 1.6.5 1.9 3.1-1.8 3.8.1 2.7 1.1h6.8l2-4.8 1.2-1.8v-1.2l-4.3-6.1-3.8-1.5-3.1-.4-2.7.9.1 2.7-3.8 4.7-3.5.1z"/><path id="poland" class="st0" d="M511.5 174.8l.9 1.6.2 1.7-.7 1.6-1.6 3.1-1.4.6-1.8-.8-1 .1-2.5 1-2.9-.9-4.7-3.3-4.6-2.5-1.9-2.8-.4-6.6 3.6-3.1 4.7-1.6 1.8-.2-.7 1.4.5.6 7.9.1 1.7-.1 2.8 4.3-.7 1.8.3 2.1.5 1.9z"/><path id="spain" class="st0" d="M448.4 205h-12.7l-2.6-1.2-1.2.1-1.5 3.1.5 3.2 4.9.4.6 2.1-2.1 11.9.1 2.1 3.5 1.9 4 .3 8-2 3.9-4.9.1-5 6.9-6.2.4-2.8-6.3-.1-6.5-2.9z"/><path id="portugal" class="st0" d="M430.9 211.2l-.6 8.6-1.8 1.6.2 1 1.2 2.1-.8 2.5 1.3.4 3.1-.4-.2-2.5 2-11.6-.4-1.6-4-.1z"/><path id="majorca" class="st0" d="M461.1 217.2l-1.6.5.4 1.4h2.3l1-1.1-2.1-.8z"/><path id="sardinia" class="st0" d="M477.6 213.4l-2.6 1.3.4 5.2 2.1.4 1.6-1.5v-4.9l-1.5-.5z"/><path id="corsica" class="st0" d="M477.8 207l-2 2-.2 1.8 1.6 1 .6-.1.4-2.6-.4-2.1z"/><path id="france" class="st0" d="M460.4 178.7l-2.2.5-4.4 4.8-1.3.1-1.8-1.2-1.1.3-.9 2.8-6.5.2.2 1.4 4.4 2.9 5.1 4.1-.1 4.9-2.7 4.8 5.9 2.9 6 .2 1.9-2.1 3.8.1 1.1 1 3.8-.3 2-2.5-2.5-2.9-.2-1.9.5-2.1-1.2-1.8-2.1.6-.3-1.6 4.7-5.2v-3.1l-3.1-1.8-1.6-.3-7.4-4.8z"/><path id="netherlands" class="st0" d="M470.1 168.3l-4.5 2.2 1 .9.1 2.2-1-.2-1.1-1.6-2.5 4 3.9.8 1.5 1.5h.8l.5-3.5 2.5-1-1.2-5.3z"/><path id="belgium" class="st0" d="M461.6 176.5l-.6 1.6 6.9 4.5 2 .5.1-2.1-1.7-1.9h-1.1l-1.5-1.6-4.1-1z"/><path id="germany" class="st0" d="M471.1 167.9l3.6-.6v-2.5l3-.5 1.6 1.6 1.7.2 2.7-1.2 2.4.7 2.1 1.8.3 6.9 2.1 2.8-2.8.4-4.6 2.9.4 1 4.1 3.9-.3 1.9-3.9 1.9-3.6.1-.9 1.8h-1.8l-.9-1.9-3.2-.8-.1-3.2-2.7-1.8.3-2.3-1.8-2.5.5-3.3 2.5-1.2-.7-6.1z"/><path id="denmark" class="st0" d="M476.8 151.5l-4.1 4.6-.1 3 1.9 4.9 3-.6-.4-4 2-2.3v-1.8l-1.4-3.7-.9-.1z"/><path id="sjælland" class="st0" d="M481.4 159.6h-.9l-1.2 1.1.1 1.8 2.9.1.1-2-1-1z"/><path id="gotland" class="st0" d="M498.5 150.2l-2.1 1.7 1.1 2.4 1.9-1.8-.9-2.3z"/><path id="switzerland" class="st0" d="M472.9 189.4l-4.4 4.6.1.5 1.8-.6 1.6 2.2 2.7-1 1.9 1.5.8-.4 2.3-3.6-.6-.6-2.3-.1-1.1-2.3-2.8-.2z"/><path id="czech" class="st0" d="M488.4 184.9h4.5l2.4 1.7 4.4-3.6-4.3-3-4.2-2-2.9.5-3.9 2.5 4 3.9z"/><path id="slovakia" class="st0" d="M495.8 187.1l.7.6.1 1 7.6-.2 5.6-2.4-.1-2.5-1.1.5-1.5-.8h-1l-2.5 1-3.4-.8-4.4 3.6z"/><path id="austria" class="st0" d="M480.6 190.1l-.6 1.4.6 1 2.3-.5h2l2.1 1.8 4.6-.8 3.4-2 .9-1.4-.1-1.7-3-2.3h-4l-.3 2.3-4.5 2.1-3.4.1z"/><path id="hungary" class="st0" d="M496.7 189.6l-1.2 1.8.1 2.8 1.9.9 5.7.2 7.9-6.7v-1.5l-.9-.4-5.7 2.6-7.8.3z"/><path id="slovenia" class="st0" d="M494.8 192l-2.5 1.5-4.7 1 1 2.7h3.3l3.1-2.6-.2-2.6z"/><path id="croatia" class="st0" d="M495.6 195.2l-3.5 2.9h-3.6l-.4 2.5 1.6.4.8-1.2 1.3 1.1 1 3.6 7.1 3.3.7-.8-7.2-7.4.7-1.4 6.8-.3.7-2.2-4.4.1-1.6-.6z"/><path id="bosnia" class="st0" d="M494.8 198.9l-.4.6 6.7 6.9 2.5-3.6-.1-1.4-2.1-2.6-6.6.1z"/><path id="italy" class="st0" d="M472.3 197l-.6 1.6.2 1.7 2.4 2.8 3.8-.1 8.3 9.6 5.2 1.5 3.1 2.9.7 6.6 1.6-1 1.4-3.6-.4-2.6 2.4-.2.4-1.5-6.9-3.3-6.5-6.4-2.6-3.8-.6-3.6 3.3-.8-.9-2.4-2-1.7-1.8-.1-2.4.7-2.3 3.2-1.4.9-2.1-1.3-2.3.9z"/><path id="sicily" class="st0" d="M492.4 223l-1.5-.8-5 .8.2 1.3 4.5 2.2.7.7 1.2.2-.1-4.4z"/><path id="malta" class="st0" d="M492.6 230.5l-1.7.3.1 1.9 1.5.5.7-.6-.6-2.1z"/><path id="ukraine" class="st0" d="M515.6 173.1l-2.9 1.6.7 3.1-2.7 5.6v2.5l1.3.8 8.1.4 2.3-1.9 2.4.8 3.5 4.6-2.5 4.6 3 .9 4-4.6 2.3.4 2.1 1.5-1.8 2.4 2.5 3.9h2.7l1.4-2.6 2.8-.6.1-2.1-5.2-.8.2-2.3h5.1l5.5-4.4 2.4-2.1.4-6.7-10.8-1-4.4-6.2-3.1-1.1-3.7.2-1.7 4.1-7.6.1-2.5-1.1h-3.9z"/><path id="moldova" class="st0" d="M520.8 187.7l3.1 4.8-.3 2.7 1.1.1 2.6-4.4-3.2-3.9-1.8-.7-1.5 1.4z"/><path id="romania" class="st0" d="M512.2 187.6l-.3 1.5-5.8 4.8 4.8 7.1 3.1 2.2h5.6l1.8-1.5 2.5-.3 1.8 1.1 3.3-3.7-.6-1.9-3.3-.9-2.3-.1.1-3.2-3-4.7-7.7-.4z"/><path id="montenegro" class="st0" d="M504.9 207.2v-.9l-1.3-1.9-2.1 3 .4 1.3 1.7.3 1.3-1.8z"/><path id="serbia" class="st0" d="M505.6 194.5l-2.1 1.5h-1l-.7 2.1 2.4 2.8.2 2.2-.3.5 1.6 2.3.1 1.2 1.2 1.1 3.8-1.2-.3-5.5-4.9-7z"><desc id="desc7821">includes kosovo</desc></path><path id="bulgaria" class="st0" d="M511.4 202.4l.2 5 1.7 3.5 6.3.1 2.8-2 2.8-1.1-.7-3.2.6-1.7-1.4-.7-2 .2-1.5 1.5-6.4.1-2.4-1.7z"/><path id="albania" class="st0" d="M504 209.8v4.6l1.3 2.5 1-.1 1.6-3-1-1.3-.4-3.3-1.3-1.2-1.2 1.8z"/><path id="macedonia" class="st0" d="M510.9 208l-3.4 1.1.2 2.9.8 1 4-1.9-1.6-3.1z"/><path id="greece" class="st0" d="M506.7 217.6l-.1 1.3 4.6 2.3 2.2.9-1.2 1.2-2.6.3-.4 1.2.9 2 2.9 1.5 1.3.1.2-3.4 1.9-2.3-5.2-6.1.7-2.1 1.2-.1 1.8 1.5 1.2-.6.4-2.1 5.4.1.2-3.2-2.3 1.6-6.6-.2-4.3 2.2-2.2 3.9z"/><path id="thrace" class="st0" d="M523 209.7l-.2 3.6 3.1-.9 1.4-.9-.4-1.5-1.5-1.2-2.4.9z"/><path id="crete" class="st0" d="M516.8 230.6l1.6.1.7 1h2.4l1.6-.6.5.6-1 1.4-4.6.2-.8-1.1-.9-.5.5-1.1z"/></svg>